# xmcd
#
# Track frame offsets: 
#        187
#        14180
#        48500
#        65277
#        100362
#        139960
#        164097
#        199317
#        214840
#        243687
#        271662
#
# Disc length: 4351 seconds
#
# Revision: 8
# Processed by: cddbd v1.5.2PL0 Copyright (c) Steve Scherf et al.
# Submitted via: ExactAudioCopy v1.2
#
DISCID=b010fd0b
DTITLE=Jimi Hendrix - Blues
DYEAR=1994
DGENRE=Blues
TTITLE0=Hear My Train A Comin' (acoustic)
TTITLE1=Born Under A Bad Sign
TTITLE2=Red House
TTITLE3=Catfish Blues
TTITLE4=Voodoo Chile Blues
TTITLE5=Mannish Boy
TTITLE6=Once I Had A Woman
TTITLE7=Bleeding Heart
TTITLE8=Jelly 292
TTITLE9=Electric Church Red House
TTITLE10=Hear My Train A Comin' (electric)
EXTD=YEAR: 1994
EXTT0=
EXTT1=
EXTT2=
EXTT3=
EXTT4=
EXTT5=
EXTT6=
EXTT7=
EXTT8=
EXTT9=
EXTT10=
PLAYORDER=
